<?xml version="1.0" encoding="UTF-8" ?>
<!DOCTYPE svg PUBLIC "-//W3C//DTD SVG 1.1//EN" "http://www.w3.org/Graphics/SVG/1.1/DTD/svg11.dtd">
<svg width="331pt" height="429pt" viewBox="0 0 331 429" version="1.1" xmlns="http://www.w3.org/2000/svg">
<path fill="#ffffff" d=" M 0.00 0.00 L 331.00 0.00 L 331.00 429.00 L 0.00 429.00 L 0.00 0.00 Z" />
<path fill="#ff0000" d=" M 104.51 16.31 C 110.62 13.58 117.40 13.41 123.96 12.92 C 135.97 12.77 148.00 13.14 160.01 12.63 C 175.01 12.66 190.01 12.85 205.01 12.74 C 215.93 12.70 227.05 15.49 235.95 21.98 C 239.79 25.89 244.29 29.40 246.72 34.45 C 248.92 38.41 249.57 42.94 250.60 47.29 C 259.62 50.06 267.81 54.85 276.60 58.18 C 280.04 53.18 282.66 47.17 288.20 44.10 C 291.15 44.78 294.31 46.42 294.73 49.76 C 292.40 54.30 288.71 57.94 285.97 62.19 C 285.68 64.99 288.79 66.01 290.53 67.51 C 302.90 76.56 314.19 88.57 318.24 103.73 C 321.69 115.95 318.13 129.47 310.14 139.14 C 306.90 142.30 301.90 141.89 297.80 141.13 C 286.66 138.89 276.38 133.79 266.30 128.73 C 259.75 125.22 253.03 121.98 246.96 117.67 C 245.91 119.21 244.83 120.73 243.72 122.23 C 245.02 123.29 246.33 124.35 247.73 125.28 C 273.41 141.72 293.95 166.00 305.92 194.04 C 316.52 218.52 320.10 245.75 317.20 272.21 C 313.34 305.85 297.90 338.01 274.04 362.03 C 272.76 363.43 270.96 364.74 270.90 366.83 C 278.36 377.16 285.65 387.63 292.99 398.04 C 293.71 399.26 294.35 400.52 295.04 401.76 C 293.14 404.41 289.72 406.61 286.37 405.97 C 277.86 395.41 270.69 383.84 262.58 372.97 C 260.85 374.09 259.15 375.27 257.53 376.54 C 237.11 392.15 212.66 402.40 187.23 406.12 C 175.89 407.46 164.40 408.78 153.01 407.22 C 133.84 405.82 114.97 400.69 97.71 392.25 C 86.80 387.14 76.99 380.13 67.31 373.04 C 59.47 383.37 52.28 394.20 44.72 404.72 C 41.83 407.24 37.85 405.84 35.59 403.23 C 34.45 402.37 34.81 400.67 35.57 399.68 C 43.42 388.42 51.62 377.37 59.22 365.93 C 57.13 363.31 54.74 360.97 52.41 358.56 C 22.49 326.66 7.55 281.48 12.47 238.02 C 16.11 201.97 33.25 167.48 59.77 142.80 C 67.09 135.61 75.42 129.54 84.01 123.96 C 86.18 122.73 84.79 118.06 82.15 119.18 C 67.09 127.27 52.15 136.25 35.47 140.62 C 30.51 141.76 24.14 142.94 20.27 138.72 C 13.97 130.74 10.29 120.31 11.30 110.11 C 13.45 92.14 26.19 77.55 40.42 67.40 C 41.78 66.17 44.20 65.36 44.02 63.16 C 41.01 58.30 37.58 53.71 34.60 48.82 C 36.52 46.57 38.83 44.71 41.79 44.09 C 47.47 47.35 49.69 53.96 54.00 58.60 C 62.28 54.60 70.71 50.89 79.17 47.35 C 80.52 38.11 84.84 29.05 92.32 23.25 C 95.93 20.21 100.25 18.24 104.51 16.31 Z" />
<path fill="#ffffff" d=" M 118.11 24.48 C 126.45 23.84 134.86 24.61 143.18 23.57 C 159.73 23.44 176.28 23.44 192.82 23.57 C 198.86 24.34 204.95 24.01 211.00 24.37 C 222.10 25.82 233.55 32.58 236.97 43.78 C 229.79 44.26 222.41 43.20 215.44 45.54 C 204.75 48.25 194.86 56.95 193.47 68.29 C 192.49 74.59 196.52 80.10 200.53 84.48 C 211.33 95.12 224.32 103.21 236.94 111.49 C 236.88 112.50 236.89 113.52 236.96 114.53 C 236.12 115.40 235.28 116.26 234.44 117.12 C 232.35 116.44 230.32 115.62 228.34 114.70 C 213.70 107.97 197.96 103.69 181.96 101.91 C 175.79 100.93 169.52 101.45 163.33 100.73 C 161.67 89.35 159.73 78.00 158.14 66.60 C 163.04 65.75 168.03 65.35 172.84 64.02 C 176.60 61.52 173.84 56.12 173.21 52.57 C 170.52 52.06 167.78 52.27 165.09 52.71 C 157.33 54.21 149.39 54.73 141.67 56.47 C 140.05 56.71 139.01 58.08 137.78 59.02 C 137.81 60.89 137.82 62.76 137.71 64.62 C 135.53 62.85 134.77 60.03 133.19 57.80 C 128.56 50.64 120.44 46.48 112.27 44.82 C 105.95 43.25 99.40 44.36 92.98 43.83 C 96.10 32.80 107.39 26.28 118.11 24.48 Z" />
<path fill="#ffffff" d=" M 137.34 66.71 C 138.94 67.34 140.48 68.16 142.14 68.64 C 146.74 68.60 151.21 67.29 155.82 67.21 C 156.91 72.54 157.58 77.96 158.37 83.35 C 159.12 89.32 160.66 95.21 160.63 101.26 C 143.61 101.33 126.69 104.97 110.76 110.87 C 105.57 112.68 100.76 115.42 95.53 117.12 C 94.73 116.27 93.92 115.43 93.11 114.60 C 93.07 113.97 92.99 112.72 92.95 112.10 C 105.98 103.30 119.74 95.13 130.72 83.73 C 135.24 79.32 138.15 73.13 137.34 66.71 Z" />
<path fill="#ffffff" d=" M 155.41 116.45 C 179.53 114.87 204.07 119.44 225.73 130.26 C 251.60 142.88 273.26 163.86 286.77 189.27 C 298.36 210.85 303.96 235.57 302.86 260.03 C 301.81 291.38 289.42 322.15 268.65 345.62 C 248.49 368.76 220.33 384.80 190.13 390.28 C 164.29 395.06 137.08 392.38 112.75 382.45 C 84.59 371.02 60.44 350.03 45.28 323.69 C 31.29 299.79 25.01 271.55 27.07 243.97 C 29.07 216.16 39.82 189.05 57.43 167.43 C 81.17 137.85 117.51 118.75 155.41 116.45 Z" />
<path fill="#ff0000" d=" M 163.75 126.02 C 164.31 126.01 165.43 125.99 166.00 125.98 C 166.00 128.90 166.02 131.82 165.93 134.74 C 165.41 134.58 164.37 134.27 163.85 134.11 C 163.53 131.42 163.73 128.72 163.75 126.02 Z" />
<path fill="#ff0000" d=" M 73.77 162.78 C 76.69 163.74 78.67 166.21 80.68 168.39 C 80.63 169.26 79.35 170.96 78.57 169.73 C 76.62 167.74 73.46 165.96 73.77 162.78 Z" />
<path fill="#ff0000" d=" M 248.57 169.05 C 250.60 166.70 252.78 164.49 255.17 162.51 C 257.13 165.36 253.65 167.12 251.97 168.97 C 251.04 170.19 249.65 169.88 248.57 169.05 Z" />
<path fill="#ff0000" d=" M 126.66 175.16 C 130.46 175.03 133.18 177.95 136.09 179.94 C 141.41 184.09 147.29 187.52 152.23 192.15 C 149.36 194.90 145.58 196.26 142.03 197.88 C 145.67 206.68 150.14 215.11 154.00 223.81 C 157.43 230.50 160.14 237.56 163.76 244.14 C 166.98 245.39 170.42 246.29 173.01 248.76 C 198.55 241.90 224.17 235.34 249.68 228.35 C 248.75 224.75 247.82 221.14 247.28 217.46 C 251.50 216.56 255.48 218.56 259.46 219.60 C 265.33 221.51 271.50 222.61 277.07 225.37 C 274.89 229.89 270.56 232.65 267.10 236.09 C 263.11 239.74 259.71 244.13 254.93 246.82 C 253.17 243.45 252.45 239.70 251.51 236.05 C 249.79 236.35 248.07 236.65 246.38 237.07 C 222.44 243.21 198.60 249.70 174.63 255.71 C 173.12 259.46 170.31 263.46 165.88 263.65 C 160.75 264.44 155.70 260.16 155.51 255.02 C 155.33 252.50 156.54 250.20 157.37 247.91 C 149.78 232.38 142.68 216.63 135.09 201.10 C 131.44 202.56 127.92 204.56 123.94 204.94 C 123.77 202.97 123.64 200.98 123.94 199.02 C 124.92 191.07 125.22 183.04 126.66 175.16 Z" />
<path fill="#ff0000" d=" M 36.66 253.02 C 39.46 253.00 42.26 252.99 45.05 253.03 C 45.01 253.69 44.93 255.01 44.89 255.68 C 42.23 255.66 39.57 255.67 36.90 255.69 C 36.84 255.02 36.72 253.68 36.66 253.02 Z" />
<path fill="#ff0000" d=" M 284.73 253.03 C 287.50 253.00 290.27 253.00 293.05 253.00 C 293.02 253.68 292.95 255.03 292.92 255.70 C 290.28 255.67 287.64 255.66 285.00 255.66 C 284.93 255.00 284.80 253.69 284.73 253.03 Z" />
<path fill="#ff0000" d=" M 73.62 344.18 C 75.62 342.05 77.62 338.14 81.05 339.00 C 79.64 341.85 77.14 343.89 74.89 346.06 C 74.57 345.59 73.94 344.65 73.62 344.18 Z" />
<path fill="#ff0000" d=" M 248.79 338.77 C 252.26 338.54 253.97 342.12 256.30 344.08 C 255.94 344.56 255.23 345.53 254.87 346.02 C 252.61 343.82 249.80 341.91 248.79 338.77 Z" />
<path fill="#ff0000" d=" M 163.95 374.43 C 164.42 374.26 165.37 373.91 165.85 373.73 C 166.05 376.89 166.06 380.07 165.82 383.23 C 162.13 382.35 163.99 377.24 163.95 374.43 Z" />
</svg>
